# Blender v2.78 (sub 0) OBJ File: 'untitled.blend'
# www.blender.org
mtllib car2.mtl
o Cube
v 2.474051 0.028503 3.761114
v -2.579533 0.028503 3.761115
v -2.579533 0.028503 -3.761115
v 2.474051 0.028503 -3.761113
v 2.474049 1.000000 3.761116
v -2.579534 1.000000 3.761112
v -2.579532 1.000000 -3.761116
v 2.474050 1.000000 -3.761114
v 1.899921 3.014676 1.837758
v -2.005405 3.014676 1.837756
v 1.899922 3.014676 -2.711947
v -2.005404 3.014676 -2.711947
v 2.271999 0.028503 6.792097
v -2.377484 0.028503 6.792097
v 2.271998 0.705088 6.792099
v -2.377485 0.705088 6.792095
v 2.474050 -0.454102 3.986018
v -2.579533 -0.454102 3.986019
v 2.474051 -0.454102 -3.761113
v -2.579533 -0.454102 -3.761115
v 2.271999 -0.454102 6.792097
v -2.377484 -0.454102 6.792097
v 2.474051 0.028503 -0.338842
v -2.579533 0.028503 -0.338843
v 2.474050 1.000000 -0.338842
v -2.579533 1.000000 -0.338845
v 1.899921 3.014676 -0.305362
v -2.005404 3.014676 -0.305363
v 2.474051 -0.454102 -0.948861
v -2.579532 -0.454102 -0.948861
v 1.628825 0.028503 -3.761113
v 1.628823 1.000000 3.761115
v 1.628824 1.000000 -3.761115
v 1.246744 3.014676 1.837757
v 1.246745 3.014676 -2.711947
v 1.494360 0.028503 6.792097
v 1.494359 0.705088 6.792098
v 1.628824 -0.454102 3.761114
v 1.628825 -0.454102 -3.761113
v 1.494360 -0.454102 6.792097
v 1.628825 -0.454102 -0.338842
v 1.246744 3.014676 -0.305362
v -1.765665 1.000000 3.761113
v -1.376460 3.014676 1.837756
v -1.628694 0.028503 6.792097
v -1.628695 0.705088 6.792096
v -1.765664 -0.454102 3.761115
v -1.628694 -0.454102 6.792097
v -1.376460 3.014676 -0.305363
v -1.765663 0.028503 -3.761114
v -1.765663 1.000000 -3.761116
v -1.376459 3.014676 -2.711948
v -1.765663 -0.454102 -3.761114
v -1.765664 -0.454102 -0.338843
v 2.474051 0.028503 -2.847332
v -2.579533 0.028503 -2.847333
v 2.474050 1.000000 -2.847332
v -2.579533 1.000000 -2.847334
v 1.899921 3.014676 -2.069364
v -2.005404 3.014676 -2.069365
v 2.474051 -0.454102 -2.237314
v -2.579533 -0.454102 -2.237314
v 1.628825 -0.454102 -2.847332
v 1.246745 3.014676 -2.069364
v -1.765664 -0.454102 -2.847332
v -1.376459 3.014676 -2.069365
v 2.342649 0.028503 5.732277
v -2.448133 0.028503 5.732277
v -2.448134 0.808208 5.732274
v 2.342648 0.808208 5.732279
v 2.342649 -0.454102 5.507373
v -2.448132 -0.454102 5.507373
v 1.541377 -0.454102 5.732277
v 1.541376 0.808208 5.732278
v -1.676587 -0.454102 5.732277
v -1.676588 0.808208 5.732275
v -1.765664 -1.555859 3.761115
v -2.579533 -1.555859 3.509582
v 2.474051 -1.555859 -2.847332
v 2.474051 -1.555859 -3.761113
v -2.579533 -1.555859 -2.847333
v -2.579533 -1.555859 -3.761115
v 1.628825 -1.555859 -3.761113
v -1.628694 -1.555858 6.792097
v -2.377484 -1.555858 6.792097
v 2.342649 -1.555859 5.983810
v 2.271999 -1.555858 6.792097
v 2.474050 -1.555859 3.509581
v 2.474051 -1.555859 -0.338842
v -2.579533 -1.555859 -0.338843
v 1.628825 -1.555859 -0.338842
v 1.628824 -1.555859 3.761114
v -1.765663 -1.555859 -3.761114
v 1.494360 -1.555858 6.792097
v -1.765664 -1.555859 -0.338843
v 1.541377 -1.555859 5.732277
v 1.628825 -1.555859 -2.847332
v -1.676587 -1.555859 5.732277
v -1.765664 -1.555859 -2.847332
v -2.448132 -1.555859 5.983810
vn 0.0000 0.0000 -1.0000
vn -0.0000 0.4619 -0.8869
vn 0.0000 0.0000 1.0000
vn -1.0000 0.0000 -0.0000
vn 1.0000 0.0000 0.0000
vn 0.0000 1.0000 0.0000
vn 0.9617 0.2741 0.0000
vn -0.9617 0.2741 -0.0000
vn -0.0000 0.6905 0.7233
vn -0.0000 0.9953 0.0968
vn -0.9978 -0.0000 0.0665
vn 0.9978 0.0000 0.0665
vn -0.9990 0.0000 0.0451
vn -0.9972 -0.0000 0.0750
vn 0.9981 -0.0140 0.0602
vn 0.3397 -0.2509 -0.9064
vn 0.9990 0.0000 0.0443
vn -0.3285 -0.2520 0.9103
vn 0.0000 -1.0000 0.0000
vn 0.9972 -0.0000 0.0750
vn -0.9981 -0.0140 0.0602
vn 0.0162 -0.2113 -0.9773
vn 0.9976 0.0146 0.0673
vn 0.0154 -0.2113 0.9773
vn 0.3397 -0.2509 0.9064
vn -0.3285 -0.2520 -0.9103
vn -0.0169 -0.2113 -0.9773
vn -0.0160 -0.2113 0.9773
vn -0.9976 0.0146 0.0673
usemtl Material
s off
f 31//1 4//1 19//1 39//1
f 51//2 7//2 12//2 52//2
f 45//3 14//3 22//3 48//3
f 56//4 58//4 7//4 3//4
f 31//1 33//1 8//1 4//1
f 57//5 55//5 4//5 8//5
f 66//6 52//6 12//6 60//6
f 57//7 8//7 11//7 59//7
f 26//8 6//8 10//8 28//8
f 32//9 5//9 9//9 34//9
f 45//3 46//3 16//3 14//3
f 76//10 69//10 16//10 46//10
f 69//11 68//11 14//11 16//11
f 67//12 70//12 15//12 13//12
f 75//13 47//13 77//13 98//13
f 18//4 30//4 90//4 78//4
f 68//14 2//14 18//14 72//14
f 56//4 3//4 20//4 62//4
f 23//5 1//5 17//5 29//5
f 67//15 13//15 21//15 71//15
f 55//5 23//5 29//5 61//5
f 2//4 24//4 30//4 18//4
f 48//3 22//3 85//3 84//3
f 58//8 26//8 28//8 60//8
f 5//7 25//7 27//7 9//7
f 44//6 49//6 28//6 10//6
f 5//5 1//5 23//5 25//5
f 2//4 6//4 26//4 24//4
f 9//6 27//6 42//6 34//6
f 30//16 54//16 95//16 90//16
f 29//5 17//5 88//5 89//5
f 39//1 19//1 80//1 83//1
f 70//10 74//10 37//10 15//10
f 13//3 15//3 37//3 36//3
f 43//9 32//9 34//9 44//9
f 59//6 11//6 35//6 64//6
f 50//1 51//1 33//1 31//1
f 13//3 36//3 40//3 21//3
f 8//2 33//2 35//2 11//2
f 50//1 31//1 39//1 53//1
f 3//1 50//1 53//1 20//1
f 3//1 7//1 51//1 50//1
f 6//9 43//9 44//9 10//9
f 20//1 53//1 93//1 82//1
f 34//6 42//6 49//6 44//6
f 63//5 41//5 91//5 97//5
f 38//17 73//17 96//17 92//17
f 74//10 76//10 46//10 37//10
f 36//3 37//3 46//3 45//3
f 64//6 35//6 52//6 66//6
f 36//3 45//3 48//3 40//3
f 33//2 51//2 52//2 35//2
f 42//6 64//6 66//6 49//6
f 61//18 63//18 97//18 79//18
f 27//6 59//6 64//6 42//6
f 29//19 41//19 63//19 61//19
f 7//8 58//8 60//8 12//8
f 4//5 55//5 61//5 19//5
f 24//4 56//4 62//4 30//4
f 54//19 30//19 62//19 65//19
f 25//7 57//7 59//7 27//7
f 49//6 66//6 60//6 28//6
f 25//5 23//5 55//5 57//5
f 24//4 26//4 58//4 56//4
f 32//10 43//10 76//10 74//10
f 18//19 47//19 75//19 72//19
f 5//10 32//10 74//10 70//10
f 62//4 20//4 82//4 81//4
f 1//20 67//20 71//20 17//20
f 14//21 68//21 72//21 22//21
f 38//19 17//19 71//19 73//19
f 1//12 5//12 70//12 67//12
f 6//11 2//11 68//11 69//11
f 43//10 6//10 69//10 76//10
f 99//19 81//19 82//19 93//19
f 96//19 86//19 87//19 94//19
f 77//19 78//19 90//19 95//19
f 88//19 92//19 91//19 89//19
f 98//19 96//19 94//19 84//19
f 79//19 97//19 83//19 80//19
f 100//19 98//19 84//19 85//19
f 92//19 77//19 95//19 91//19
f 97//19 99//19 93//19 83//19
f 91//19 95//19 99//19 97//19
f 77//19 92//19 96//19 98//19
f 54//4 65//4 99//4 95//4
f 73//22 71//22 86//22 96//22
f 71//23 21//23 87//23 86//23
f 40//3 48//3 84//3 94//3
f 17//24 38//24 92//24 88//24
f 65//25 62//25 81//25 99//25
f 53//1 39//1 83//1 93//1
f 41//26 29//26 89//26 91//26
f 72//27 75//27 98//27 100//27
f 47//28 18//28 78//28 77//28
f 21//3 40//3 94//3 87//3
f 19//5 61//5 79//5 80//5
f 22//29 72//29 100//29 85//29
